<?xml version="1.0" encoding="UTF-8"?>
<svg width="142px" height="138px" viewBox="0 0 142 138" version="1.1" xmlns="http://www.w3.org/2000/svg" xmlns:xlink="http://www.w3.org/1999/xlink">
    <!-- Generator: Sketch 53.2 (72643) - https://sketchapp.com -->
    <title>Hello World Logo</title>
    <desc>Created with Sketch.</desc>
    <g id="Page-1" stroke="none" stroke-width="1" fill="none" fill-rule="evenodd">
        <g id="Hello-World-Logo" transform="translate(1.000000, 0.929775)">
            <ellipse id="Oval" stroke="#979797" fill="#4A90E2" cx="70" cy="68.0702246" rx="70" ry="68"></ellipse>
            <path d="M27,22.0702246 C32.9797314,11.8256398 38.646398,7.15897318 44,8.07022458 C48.4059488,8.82017332 77,12.8201733 84,12.0702246 C85.5415244,11.9050725 91.8748577,10.5717392 103,8.07022458 C104.787457,22.9517572 102.787457,36.6184239 97,49.0702246 C91.2125433,61.5220253 82.2125433,71.5220253 70,79.0702246 C76.1012559,88.9926763 79.7679225,95.3260096 81,98.0702246 C86.330879,109.943729 103.380178,104.266446 103,107.070225 C102.539681,110.465032 97.6919393,117.908959 97,120.070225 C94.3047403,128.488844 83.9571933,126.970819 76,128.070225 C64.8266788,129.613987 46.9462407,97.3057449 44,96.0702246 C39.7653289,94.2943948 41.0986622,82.6277281 48,61.0702246 C42.4973201,54.4992439 38.8306534,47.8139687 37,41.0143987 C35.1693466,34.2148288 31.8360132,27.9001041 27,22.0702246 Z" id="Rectangle" fill="#7ED321"></path>
            <path d="M47.1580409,3.54714296 L38.8279502,7.24940546 C40.3051112,8.29831545 45.4644003,9.13556509 54.0253909,9.5708697 C54.9845302,9.61963949 56.51222,9.7359064 58.9492145,9.94063326 C59.9927767,10.0283008 64.8767003,10.4478444 66.2068353,10.5599799 C67.1240465,10.6373043 67.9736882,10.7079318 68.7876762,10.7743653 C75.07176,11.2872402 79.3972038,11.5613286 82.0017083,11.5702275 C86.9690652,11.5871996 93.4634186,10.3685832 101.475732,7.91061839 L84.8832102,1.56089244 C76.1793135,0.672117425 69.6625686,0.342167773 65.3426198,0.569533497 C61.0227989,0.79689249 54.9586065,1.78915259 47.1580409,3.54714296 Z" id="Rectangle" stroke="#979797" fill="#FFFFFF"></path>
            <path d="M49.9036751,132.51107 L56.1067622,134.578766 C63.3910991,135.353729 68.8531525,135.683944 72.4843826,135.570469 C76.1227533,135.456769 81.2670424,134.79299 87.8244383,133.60206 L93.083677,131.629845 L49.9036751,132.51107 Z" id="Rectangle" stroke="#979797" fill="#FFFFFF"></path>
        </g>
    </g>
</svg>